<mxfile host="app.diagrams.net" modified="2020-11-12T00:23:10.459Z" agent="5.0 (Windows NT 10.0; Win64; x64) AppleWebKit/537.36 (KHTML, like Gecko) Chrome/86.0.4240.193 Safari/537.36" etag="T3Dfz80v69lKjQuph3zs" version="13.9.6" type="github">
  <diagram id="lNlg_rI4aMIFGwTEwsJN" name="Page-1">
    <mxGraphModel dx="782" dy="437" grid="1" gridSize="10" guides="1" tooltips="1" connect="1" arrows="1" fold="1" page="1" pageScale="1" pageWidth="827" pageHeight="1169" math="0" shadow="0">
      <root>
        <mxCell id="0" />
        <mxCell id="1" parent="0" />
        <mxCell id="OVdSD1cFqJj2mNyOS3Y8-1" value="" style="rounded=0;html=1;jettySize=auto;orthogonalLoop=1;fontSize=11;endArrow=block;endFill=0;endSize=8;strokeWidth=1;shadow=0;labelBackgroundColor=none;edgeStyle=orthogonalEdgeStyle;" edge="1" parent="1" source="OVdSD1cFqJj2mNyOS3Y8-2" target="OVdSD1cFqJj2mNyOS3Y8-5">
          <mxGeometry relative="1" as="geometry" />
        </mxCell>
        <mxCell id="OVdSD1cFqJj2mNyOS3Y8-2" value="Inicio" style="rounded=1;whiteSpace=wrap;html=1;fontSize=12;glass=0;strokeWidth=1;shadow=0;" vertex="1" parent="1">
          <mxGeometry x="370" y="70" width="120" height="40" as="geometry" />
        </mxCell>
        <mxCell id="OVdSD1cFqJj2mNyOS3Y8-3" value="" style="edgeStyle=orthogonalEdgeStyle;rounded=0;orthogonalLoop=1;jettySize=auto;exitX=1;exitY=0.5;exitDx=0;exitDy=0;entryX=0;entryY=0.5;entryDx=0;entryDy=0;labelPosition=center;verticalLabelPosition=top;align=center;verticalAlign=bottom;html=1;" edge="1" parent="1" source="OVdSD1cFqJj2mNyOS3Y8-5" target="OVdSD1cFqJj2mNyOS3Y8-7">
          <mxGeometry relative="1" as="geometry" />
        </mxCell>
        <mxCell id="OVdSD1cFqJj2mNyOS3Y8-4" style="edgeStyle=orthogonalEdgeStyle;rounded=0;orthogonalLoop=1;jettySize=auto;html=1;exitX=0;exitY=0.5;exitDx=0;exitDy=0;entryX=0.5;entryY=0;entryDx=0;entryDy=0;" edge="1" parent="1" source="OVdSD1cFqJj2mNyOS3Y8-5" target="OVdSD1cFqJj2mNyOS3Y8-13">
          <mxGeometry relative="1" as="geometry" />
        </mxCell>
        <mxCell id="OVdSD1cFqJj2mNyOS3Y8-5" value="Pulsador_1 = &#39;1&#39; &amp;amp;&lt;br&gt;Pulsador_2 = &#39;0&#39;" style="rhombus;whiteSpace=wrap;html=1;shadow=0;fontFamily=Helvetica;fontSize=12;align=center;strokeWidth=1;spacing=6;spacingTop=-4;" vertex="1" parent="1">
          <mxGeometry x="340" y="145" width="180" height="90" as="geometry" />
        </mxCell>
        <mxCell id="OVdSD1cFqJj2mNyOS3Y8-6" style="edgeStyle=orthogonalEdgeStyle;rounded=0;orthogonalLoop=1;jettySize=auto;html=1;exitX=0.5;exitY=1;exitDx=0;exitDy=0;entryX=0.425;entryY=0.008;entryDx=0;entryDy=0;entryPerimeter=0;" edge="1" parent="1" source="OVdSD1cFqJj2mNyOS3Y8-7" target="OVdSD1cFqJj2mNyOS3Y8-20">
          <mxGeometry relative="1" as="geometry" />
        </mxCell>
        <mxCell id="OVdSD1cFqJj2mNyOS3Y8-7" value="Led1 = Encendido&lt;br&gt;Led2 = Apagado" style="rounded=0;whiteSpace=wrap;html=1;" vertex="1" parent="1">
          <mxGeometry x="554" y="160" width="120" height="60" as="geometry" />
        </mxCell>
        <mxCell id="OVdSD1cFqJj2mNyOS3Y8-8" value="Si" style="text;html=1;strokeColor=none;fillColor=none;align=center;verticalAlign=middle;whiteSpace=wrap;rounded=0;" vertex="1" parent="1">
          <mxGeometry x="499" y="170" width="40" height="20" as="geometry" />
        </mxCell>
        <mxCell id="OVdSD1cFqJj2mNyOS3Y8-9" style="edgeStyle=orthogonalEdgeStyle;rounded=0;orthogonalLoop=1;jettySize=auto;html=1;exitX=1;exitY=0.5;exitDx=0;exitDy=0;" edge="1" parent="1" source="OVdSD1cFqJj2mNyOS3Y8-10">
          <mxGeometry relative="1" as="geometry">
            <mxPoint x="230" y="375" as="targetPoint" />
          </mxGeometry>
        </mxCell>
        <mxCell id="OVdSD1cFqJj2mNyOS3Y8-10" value="Pulsador_1 = &#39;0&#39; &amp;amp; Pulsador_2 = &#39;0&#39;" style="rhombus;whiteSpace=wrap;html=1;" vertex="1" parent="1">
          <mxGeometry x="40" y="330" width="160" height="90" as="geometry" />
        </mxCell>
        <mxCell id="OVdSD1cFqJj2mNyOS3Y8-11" style="edgeStyle=orthogonalEdgeStyle;rounded=0;orthogonalLoop=1;jettySize=auto;html=1;" edge="1" parent="1" source="OVdSD1cFqJj2mNyOS3Y8-13">
          <mxGeometry relative="1" as="geometry">
            <mxPoint x="120" y="330" as="targetPoint" />
          </mxGeometry>
        </mxCell>
        <mxCell id="OVdSD1cFqJj2mNyOS3Y8-12" value="" style="edgeStyle=orthogonalEdgeStyle;rounded=0;orthogonalLoop=1;jettySize=auto;html=1;" edge="1" parent="1" source="OVdSD1cFqJj2mNyOS3Y8-13" target="OVdSD1cFqJj2mNyOS3Y8-17">
          <mxGeometry relative="1" as="geometry" />
        </mxCell>
        <mxCell id="OVdSD1cFqJj2mNyOS3Y8-13" value="Pulsador_1 = &#39;0&#39; &amp;amp;&lt;br&gt;Pulsador_2 = &#39;1&#39;" style="rhombus;whiteSpace=wrap;html=1;shadow=0;fontFamily=Helvetica;fontSize=12;align=center;strokeWidth=1;spacing=6;spacingTop=-4;" vertex="1" parent="1">
          <mxGeometry x="180" y="230" width="160" height="90" as="geometry" />
        </mxCell>
        <mxCell id="OVdSD1cFqJj2mNyOS3Y8-14" value="No" style="text;html=1;strokeColor=none;fillColor=none;align=center;verticalAlign=middle;whiteSpace=wrap;rounded=0;" vertex="1" parent="1">
          <mxGeometry x="254" y="170" width="40" height="20" as="geometry" />
        </mxCell>
        <mxCell id="OVdSD1cFqJj2mNyOS3Y8-15" value="Si" style="text;html=1;strokeColor=none;fillColor=none;align=center;verticalAlign=middle;whiteSpace=wrap;rounded=0;" vertex="1" parent="1">
          <mxGeometry x="319" y="250" width="40" height="20" as="geometry" />
        </mxCell>
        <mxCell id="OVdSD1cFqJj2mNyOS3Y8-16" style="edgeStyle=orthogonalEdgeStyle;rounded=0;orthogonalLoop=1;jettySize=auto;html=1;exitX=1;exitY=0.5;exitDx=0;exitDy=0;entryX=0;entryY=0;entryDx=0;entryDy=0;" edge="1" parent="1" source="OVdSD1cFqJj2mNyOS3Y8-17" target="OVdSD1cFqJj2mNyOS3Y8-20">
          <mxGeometry relative="1" as="geometry" />
        </mxCell>
        <mxCell id="OVdSD1cFqJj2mNyOS3Y8-17" value="Led1 = Encendido&lt;br&gt;Led2 = Encendido" style="rounded=0;whiteSpace=wrap;html=1;" vertex="1" parent="1">
          <mxGeometry x="370" y="245" width="120" height="60" as="geometry" />
        </mxCell>
        <mxCell id="OVdSD1cFqJj2mNyOS3Y8-18" style="edgeStyle=orthogonalEdgeStyle;rounded=0;orthogonalLoop=1;jettySize=auto;html=1;exitX=1;exitY=0.5;exitDx=0;exitDy=0;" edge="1" parent="1" source="OVdSD1cFqJj2mNyOS3Y8-19" target="OVdSD1cFqJj2mNyOS3Y8-20">
          <mxGeometry relative="1" as="geometry" />
        </mxCell>
        <mxCell id="OVdSD1cFqJj2mNyOS3Y8-19" value="Led1 = Apagado&lt;br&gt;Led2 = Apagado" style="rounded=0;whiteSpace=wrap;html=1;" vertex="1" parent="1">
          <mxGeometry x="239" y="345" width="120" height="60" as="geometry" />
        </mxCell>
        <mxCell id="OVdSD1cFqJj2mNyOS3Y8-20" value="FIN" style="ellipse;whiteSpace=wrap;html=1;" vertex="1" parent="1">
          <mxGeometry x="580" y="355" width="80" height="40" as="geometry" />
        </mxCell>
      </root>
    </mxGraphModel>
  </diagram>
</mxfile>
